<?xml version="1.0" encoding="UTF-8" standalone="no"?>
<!DOCTYPE svg PUBLIC "-//W3C//DTD SVG 1.1//EN" "http://www.w3.org/Graphics/SVG/1.1/DTD/svg11.dtd">
<svg width="100%" height="100%" viewBox="0 0 50 50" version="1.1" xmlns="http://www.w3.org/2000/svg" xmlns:xlink="http://www.w3.org/1999/xlink" xml:space="preserve" xmlns:serif="http://www.serif.com/" style="fill-rule:evenodd;clip-rule:evenodd;stroke-linejoin:round;stroke-miterlimit:1.41421;">
    <g transform="matrix(0.0870045,0,0,0.0870045,2.03918,1.03918)">
        <g>
            <g transform="matrix(1.00714,0,0,1.00714,-13.4589,-1.9652)">
                <path d="M501.613,491.782C513.994,491.782 524.722,487.694 533.842,479.622L377.793,323.567C374.049,326.248 370.42,328.855 366.992,331.334C355.314,339.938 345.836,346.652 338.558,351.463C331.281,356.285 321.599,361.2 309.513,366.218C297.419,371.242 286.152,373.746 275.7,373.746L275.394,373.746L275.088,373.746C264.635,373.746 253.368,371.243 241.275,366.218C229.182,361.2 219.5,356.285 212.23,351.463C204.953,346.652 195.48,339.939 183.796,331.334C180.54,328.947 176.929,326.328 173.025,323.525L16.946,479.622C26.065,487.694 36.8,491.782 49.18,491.782L501.613,491.782Z" style="fill:white;fill-rule:nonzero;"/>
            </g>
            <g transform="matrix(1.00714,0,0,1.00714,-13.4589,-1.9652)">
                <path d="M31.047,225.299C19.37,217.514 9.015,208.598 0,198.555L0,435.98L137.541,298.439C110.025,279.229 74.572,254.877 31.047,225.299Z" style="fill:white;fill-rule:nonzero;"/>
            </g>
            <g transform="matrix(1.00714,0,0,1.00714,-13.4589,-1.9652)">
                <path d="M520.059,225.299C478.194,253.635 442.612,278.029 413.309,298.494L550.795,435.986L550.795,198.555C541.98,208.396 531.736,217.306 520.059,225.299Z" style="fill:white;fill-rule:nonzero;"/>
            </g>
            <g transform="matrix(1.00714,0,0,1.00714,-13.4589,-1.9652)">
                <path d="M501.613,59.013L49.181,59.013C33.397,59.013 21.262,64.343 12.761,74.992C4.253,85.646 0.006,98.97 0.006,114.949C0.006,127.856 5.642,141.841 16.909,156.908C28.176,171.969 40.165,183.799 52.87,192.404C59.835,197.325 80.839,211.927 115.882,236.205C134.799,249.314 151.25,260.74 165.387,270.6C177.437,278.996 187.829,286.267 196.409,292.301C197.394,292.992 198.943,294.1 200.999,295.57C203.214,297.161 206.017,299.18 209.475,301.677C216.134,306.493 221.666,310.386 226.072,313.36C230.472,316.335 235.803,319.658 242.057,323.348C248.306,327.033 254.2,329.804 259.732,331.647C265.265,333.489 270.387,334.413 275.099,334.413L275.711,334.413C280.422,334.413 285.545,333.489 291.079,331.647C296.61,329.804 302.499,327.039 308.753,323.348C315.001,319.658 320.325,316.328 324.739,313.36C329.145,310.386 334.677,306.494 341.337,301.677C344.788,299.18 347.591,297.16 349.806,295.575C351.863,294.099 353.411,292.998 354.402,292.301C361.086,287.65 371.502,280.409 385.506,270.685C410.988,252.98 448.516,226.921 498.248,192.404C513.205,181.957 525.701,169.35 535.744,154.601C545.769,139.852 550.795,124.381 550.795,108.193C550.795,94.668 545.922,83.095 536.197,73.456C526.461,63.829 514.932,59.013 501.613,59.013Z" style="fill:white;fill-rule:nonzero;"/>
            </g>
        </g>
    </g>
</svg>
