<?xml version="1.0" encoding="UTF-8" standalone="no"?><!DOCTYPE svg PUBLIC "-//W3C//DTD SVG 1.1//EN" "http://www.w3.org/Graphics/SVG/1.1/DTD/svg11.dtd"><svg width="100%" height="100%" viewBox="0 0 50 50" version="1.1" xmlns="http://www.w3.org/2000/svg" xmlns:xlink="http://www.w3.org/1999/xlink" xml:space="preserve" xmlns:serif="http://www.serif.com/" style="fill-rule:evenodd;clip-rule:evenodd;stroke-linejoin:round;stroke-miterlimit:1.41421;"><path d="M256,0c-141.376,0 -256,106.112 -256,237.024c0,74.592 37.216,141.12 95.392,184.576l0,90.4l87.168,-47.84c23.264,6.432 47.904,9.92 73.44,9.92c141.376,0 256,-106.112 256,-237.024c0,-130.912 -114.624,-237.056 -256,-237.056Zm25.44,319.2l-65.184,-69.536l-127.2,69.536l139.936,-148.544l66.784,69.536l125.6,-69.536l-139.936,148.544Z" style="fill-rule:nonzero;"/><path d="M25,2c-12.702,0 -23,9.534 -23,21.295c0,6.702 3.344,12.679 8.57,16.583l0,8.122l7.832,-4.298c2.09,0.578 4.304,0.891 6.598,0.891c12.702,0 23,-9.533 23,-21.295c0,-11.762 -10.298,-21.298 -23,-21.298Zm2.286,28.678l-5.857,-6.247l-11.428,6.247l12.573,-13.346l6,6.248l11.284,-6.248l-12.572,13.346Z" style="fill:#fff;fill-rule:nonzero;"/></svg>