<?xml version="1.0" encoding="UTF-8" standalone="no"?><!DOCTYPE svg PUBLIC "-//W3C//DTD SVG 1.1//EN" "http://www.w3.org/Graphics/SVG/1.1/DTD/svg11.dtd"><svg width="100%" height="100%" viewBox="0 0 50 50" version="1.1" xmlns="http://www.w3.org/2000/svg" xmlns:xlink="http://www.w3.org/1999/xlink" xml:space="preserve" xmlns:serif="http://www.serif.com/" style="fill-rule:evenodd;clip-rule:evenodd;stroke-linejoin:round;stroke-miterlimit:1.41421;"><g id="_003---Call" serif:id="003---Call"><path id="Shape" d="M20.875,29.126c-4.584,-4.584 -5.619,-9.168 -5.852,-11.004c-0.066,-0.508 0.109,-1.018 0.472,-1.378l3.71,-3.708c0.546,-0.546 0.643,-1.396 0.234,-2.05l-5.907,-9.171c-0.452,-0.725 -1.382,-0.986 -2.145,-0.604l-9.483,4.466c-0.617,0.304 -0.981,0.96 -0.91,1.645c0.496,4.72 2.554,16.323 13.956,27.726c11.403,11.403 23.004,13.46 27.726,13.957c0.685,0.07 1.341,-0.293 1.646,-0.911l4.465,-9.482c0.381,-0.762 0.121,-1.689 -0.6,-2.142l-9.172,-5.905c-0.653,-0.41 -1.503,-0.314 -2.049,0.232l-3.708,3.709c-0.361,0.364 -0.87,0.538 -1.378,0.473c-1.837,-0.233 -6.421,-1.268 -11.005,-5.853Z" style="fill:#fff;fill-rule:nonzero;"/><path id="Shape1" serif:id="Shape" d="M39.078,26.656c-0.914,0 -1.656,-0.741 -1.656,-1.656c-0.008,-6.856 -5.564,-12.413 -12.421,-12.421c-0.914,0 -1.656,-0.741 -1.656,-1.656c0,-0.914 0.742,-1.656 1.656,-1.656c8.686,0.01 15.724,7.048 15.733,15.733c0,0.915 -0.741,1.656 -1.656,1.656Z" style="fill:#fff;fill-rule:nonzero;"/><path id="Shape2" serif:id="Shape" d="M47.359,26.656c-0.915,0 -1.656,-0.741 -1.656,-1.656c-0.013,-11.427 -9.274,-20.688 -20.702,-20.701c-0.914,0 -1.656,-0.742 -1.656,-1.656c0,-0.915 0.742,-1.656 1.656,-1.656c13.257,0.014 23.999,10.757 24.014,24.013c0,0.439 -0.174,0.861 -0.485,1.171c-0.311,0.311 -0.732,0.485 -1.171,0.485Z" style="fill:#fff;fill-rule:nonzero;"/></g></svg>