<?xml version="1.0" encoding="UTF-8" standalone="no"?>
<!DOCTYPE svg PUBLIC "-//W3C//DTD SVG 1.1//EN" "http://www.w3.org/Graphics/SVG/1.1/DTD/svg11.dtd">
<svg width="100%" height="100%" viewBox="0 0 50 50" version="1.1" xmlns="http://www.w3.org/2000/svg" xmlns:xlink="http://www.w3.org/1999/xlink" xml:space="preserve" xmlns:serif="http://www.serif.com/" style="fill-rule:evenodd;clip-rule:evenodd;stroke-linejoin:round;stroke-miterlimit:1.41421;">
    <g transform="matrix(0.234259,0,0,0.240454,-11.9838,-13.9712)">
        <path d="M157.875,67.331C214.612,67.331 260.675,109.784 260.675,162.073C260.675,214.363 214.612,256.816 157.875,256.816C143.671,256.816 130.135,254.155 117.824,249.345C111.182,246.75 102.085,255.848 79.338,255.908C78.117,255.912 65.814,256.427 67.05,254.008C68.373,251.417 73.909,249.115 78.144,245.026C84.326,239.058 86.328,235.555 86.352,232.931C86.375,230.421 84.976,228.887 83.256,227.214C65.793,210.23 55.075,187.296 55.075,162.073C55.075,109.784 101.138,67.331 157.875,67.331ZM134.649,143.877C129.645,146.637 124.999,151.952 122.854,157.37C120.799,162.583 120.62,173.93 122.497,181.085C126.25,195.6 140.547,203.062 151.537,196.214L155.916,193.556L158.328,195.703C162.349,199.382 167.711,197.747 169.408,192.431C170.659,188.343 170.57,152.055 169.319,147.864C167.621,142.344 162.617,140.913 158.239,144.899C156.273,146.637 155.469,146.841 154.307,145.819C148.678,141.117 140.993,140.402 134.649,143.877ZM214.086,142.548C207.474,144.899 201.934,150.521 198.985,157.983C196.126,165.037 196.394,177.405 199.432,184.356C203.81,194.476 212.12,199.485 222.932,198.667C230.259,198.054 235.085,195.294 239.731,189.263C243.931,183.845 245.36,178.938 245.36,170.25C245.36,160.846 243.841,156.246 238.659,150.112C235.263,146.126 233.029,144.49 229.366,143.264C224.273,141.526 217.839,141.219 214.086,142.548ZM179.148,121.082L177.004,123.024L176.735,155.121C176.557,172.703 176.735,188.649 177.004,190.489C178.165,197.645 184.331,200.2 188.62,195.294L190.854,192.84L190.854,158.086C190.854,123.638 190.854,123.331 188.888,121.184C186.386,118.629 181.918,118.527 179.148,121.082ZM79.428,124.966C73.709,125.273 72.726,125.682 71.117,128.033C69.062,131.1 69.42,134.064 72.19,136.722C73.709,138.255 75.853,138.562 86.933,138.562C97.477,138.562 99.801,138.868 99.443,139.891C99.175,140.708 92.384,150.93 84.253,162.686C76.211,174.441 69.241,185.072 68.884,186.401C68.079,189.672 69.867,194.271 72.547,195.703C73.977,196.418 82.198,196.827 96.137,196.827L117.493,196.827L119.28,194.169C121.693,190.592 121.603,188.138 118.923,185.072C116.778,182.618 116.421,182.516 102.392,182.516C94.529,182.516 88.095,182.312 88.095,182.005C88.095,181.698 93.456,173.827 100.069,164.321C119.727,136.108 121.335,132.837 118.118,127.726C117.046,126.193 115.259,125.682 108.468,125.069C99.89,124.455 90.686,124.353 79.428,124.966ZM225.255,157.37C229.008,159.21 231.421,164.117 231.421,170.25C231.421,176.383 229.187,180.778 225.077,183.027C222.128,184.663 221.413,184.663 218.107,183.436C208.903,179.756 208.278,161.868 217.213,157.37C220.698,155.632 221.503,155.632 225.255,157.37ZM151.359,158.597C154.486,160.948 156.273,166.774 155.648,172.09C154.486,181.494 147.874,186.605 141.351,183.027C137.24,180.778 135.096,176.281 135.185,170.148C135.275,158.903 143.763,152.872 151.359,158.597Z" style="fill:white;"/>
    </g>
</svg>
