<?xml version="1.0" encoding="UTF-8" standalone="no"?>
<!DOCTYPE svg PUBLIC "-//W3C//DTD SVG 1.1//EN" "http://www.w3.org/Graphics/SVG/1.1/DTD/svg11.dtd">
<svg width="100%" height="100%" viewBox="0 0 50 50" version="1.1" xmlns="http://www.w3.org/2000/svg" xmlns:xlink="http://www.w3.org/1999/xlink" xml:space="preserve" xmlns:serif="http://www.serif.com/" style="fill-rule:evenodd;clip-rule:evenodd;stroke-linejoin:round;stroke-miterlimit:1.41421;">
    <g transform="matrix(0.152268,0,0,0.149756,-13.9807,-12.3376)">
        <path d="M365.647,98.999C381.215,98.999 393.834,111.618 393.834,127.185L393.834,346.48C393.834,362.048 381.214,374.667 365.647,374.667L243.701,374.667L190.324,413.001L190.324,374.667L146.353,374.667C130.785,374.667 118.166,362.047 118.166,346.48L118.166,127.186C118.166,111.618 130.786,98.999 146.353,98.999L365.647,98.999ZM377.334,124.93L246.134,124.93C228.698,124.931 214.564,139.065 214.564,156.5C214.564,173.935 228.698,188.069 246.134,188.07L301.302,188.07L212,311.089C206.526,318.628 205.745,328.601 209.976,336.901C214.207,345.201 222.736,350.427 232.053,350.427L371.285,350.427C380.121,350.426 388.104,346.792 393.834,340.942L393.834,296.772C388.104,290.922 380.12,287.288 371.284,287.288L307.096,287.288L393.834,169.113L393.834,131.24C389.368,127.252 383.531,124.93 377.334,124.93Z" style="fill:white;fill-rule:nonzero;"/>
    </g>
</svg>
